<svg width="462" height="462" viewBox="0 0 462 462" fill="none" xmlns="http://www.w3.org/2000/svg">
<path d="M231 1C270.273 1 308.892 11.0562 343.177 30.2105C377.462 49.3648 406.271 76.9791 426.86 110.422C447.449 143.866 459.131 182.024 460.794 221.262C462.457 260.499 454.045 299.509 436.359 334.574C418.674 369.64 392.304 399.592 359.762 421.579C327.221 443.565 289.591 456.853 250.459 460.175C211.327 463.498 171.996 456.745 136.214 440.56C100.431 424.375 69.3885 399.298 46.0441 367.716L231 231V1Z" fill="#F10000"/>
<path d="M45.8638 367.472C22.6546 335.986 7.85864 299.102 2.87473 260.306C-2.10919 221.509 2.88361 182.083 17.3811 145.754C31.8786 109.424 55.4018 77.3926 85.7269 52.6865C116.052 27.9805 152.177 11.4165 190.686 4.56057L231 231L45.8638 367.472Z" fill="#000CFE"/>
<path d="M190.908 4.52131C204.06 2.19309 217.389 1.01491 230.746 1.00014L231 231L190.908 4.52131Z" fill="#CEC7C7"/>
<path d="M305.813 226.997H302.785L296.976 236.235C295.802 238.119 294.906 239.85 294.906 242.383C294.906 246.647 298.089 249.242 302.229 249.242C306.369 249.242 309.551 246.647 309.551 242.383C309.551 238.305 306.739 235.524 302.939 235.524C302.043 235.524 300.807 235.71 300.004 236.173L299.942 236.111L305.813 226.997ZM302.229 237.749C304.855 237.749 306.956 239.541 306.956 242.383C306.956 245.225 304.855 247.017 302.229 247.017C299.603 247.017 297.502 245.225 297.502 242.383C297.502 239.541 299.603 237.749 302.229 237.749Z" fill="white"/>
<path d="M325.452 226.997H313.99L313.773 238.367C315.071 237.594 316.739 237.007 318.222 237.007C321.281 237.007 323.629 238.768 323.629 241.981C323.629 245.009 321.559 247.017 318.933 247.017C317.079 247.017 315.596 245.905 314.855 244.268L312.259 245.256C313.433 247.666 315.411 249.242 318.717 249.242C322.98 249.242 326.224 246.338 326.224 241.981C326.224 237.872 323.444 234.783 319.242 234.783C318.346 234.783 317.264 234.906 316.43 235.308L316.523 229.407H325.452V226.997Z" fill="white"/>
<path d="M332.269 245.349C331.25 245.349 330.416 246.183 330.416 247.203C330.416 248.222 331.311 249.056 332.269 249.056C333.227 249.056 334.123 248.222 334.123 247.203C334.123 246.183 333.289 245.349 332.269 245.349Z" fill="white"/>
<path d="M338.118 248.871H352.207V246.461H341.053V246.399L347.789 240.066C349.982 237.996 352.052 236.049 352.052 232.558C352.052 228.665 348.994 226.626 345.379 226.626C341.857 226.626 339.107 228.511 338.52 232.095L341.332 232.342C341.733 230.241 343.278 228.851 345.472 228.851C347.665 228.851 349.457 230.272 349.457 232.558C349.457 234.69 348.438 235.864 346.368 237.872L338.118 245.905V248.871Z" fill="white"/>
<path d="M354.915 232.033C354.915 235.061 357.294 237.44 360.322 237.44C363.35 237.44 365.729 235.061 365.729 232.033C365.729 229.005 363.35 226.626 360.322 226.626C357.294 226.626 354.915 229.005 354.915 232.033ZM357.14 232.033C357.14 230.303 358.623 228.851 360.322 228.851C362.021 228.851 363.504 230.303 363.504 232.033C363.504 233.763 362.021 235.215 360.322 235.215C358.623 235.215 357.14 233.763 357.14 232.033ZM367.49 243.835C367.49 246.863 369.869 249.242 372.896 249.242C375.924 249.242 378.303 246.863 378.303 243.835C378.303 240.807 375.924 238.428 372.896 238.428C369.869 238.428 367.49 240.807 367.49 243.835ZM369.714 243.835C369.714 242.105 371.197 240.653 372.896 240.653C374.596 240.653 376.079 242.105 376.079 243.835C376.079 245.565 374.596 247.017 372.896 247.017C371.197 247.017 369.714 245.565 369.714 243.835ZM358.993 248.871L360.693 249.86L374.41 226.997L372.711 226.008L358.993 248.871Z" fill="white"/>
<path d="M295.04 273.871H296.894V268.804C296.894 266.6 298.089 265.591 299.427 265.591C301.219 265.591 301.487 266.909 301.487 268.763V273.871H303.341V268.536C303.341 266.806 304.041 265.591 305.833 265.591C307.625 265.591 307.934 266.95 307.934 268.433V273.871H309.788V268.186C309.788 266.003 309.087 263.861 306.08 263.861C304.906 263.861 303.629 264.479 302.991 265.673C302.373 264.479 301.384 263.861 299.942 263.861C298.192 263.861 296.997 265.056 296.812 265.632H296.77V264.108H295.04V273.871Z" fill="white"/>
<path d="M314.084 268.99C314.084 267.012 315.319 265.591 317.297 265.591C319.274 265.591 320.51 267.012 320.51 268.99C320.51 270.967 319.274 272.388 317.297 272.388C315.319 272.388 314.084 270.967 314.084 268.99ZM312.106 268.99C312.106 271.832 314.393 274.118 317.297 274.118C320.201 274.118 322.487 271.832 322.487 268.99C322.487 266.147 320.201 263.861 317.297 263.861C314.393 263.861 312.106 266.147 312.106 268.99Z" fill="white"/>
<path d="M324.809 273.871H326.663V272.47H326.704C327.425 273.521 328.785 274.118 330.103 274.118C333.131 274.118 335.067 271.873 335.067 268.99C335.067 266.065 333.11 263.861 330.103 263.861C328.702 263.861 327.363 264.499 326.704 265.509H326.663V258.3H324.809V273.871ZM329.876 272.388C327.899 272.388 326.663 270.967 326.663 268.99C326.663 267.012 327.899 265.591 329.876 265.591C331.854 265.591 333.089 267.012 333.089 268.99C333.089 270.967 331.854 272.388 329.876 272.388Z" fill="white"/>
<path d="M337.545 273.871H339.399V264.108H337.545V273.871ZM337.113 260.607C337.113 261.348 337.731 261.966 338.472 261.966C339.214 261.966 339.831 261.348 339.831 260.607C339.831 259.865 339.214 259.247 338.472 259.247C337.731 259.247 337.113 259.865 337.113 260.607Z" fill="white"/>
<path d="M342.493 273.871H344.347V258.3H342.493V273.871Z" fill="white"/>
<path d="M356.525 269.669V269.01C356.525 266.497 355.206 263.861 351.767 263.861C348.842 263.861 346.72 266.065 346.72 268.99C346.72 271.894 348.657 274.118 351.746 274.118C353.62 274.118 355.042 273.459 356.072 272.12L354.671 271.049C353.95 271.935 353.126 272.512 351.993 272.512C350.284 272.512 348.698 271.379 348.698 269.669H356.525ZM348.698 268.186C348.698 266.889 349.892 265.344 351.726 265.344C353.6 265.344 354.506 266.559 354.547 268.186H348.698Z" fill="white"/>
<path d="M79.0283 170.59H79.8316C82.5195 170.59 85.3619 171.609 85.3619 174.822C85.3619 177.356 83.3846 179.117 80.913 179.117C78.5031 179.117 77.2364 178.221 76.4949 175.873L73.8688 176.738C74.981 179.982 77.6071 181.341 80.913 181.341C84.8058 181.341 88.1425 179.179 88.1425 175.008C88.1425 172.258 86.4433 169.972 83.6627 169.508V169.447C85.8562 168.767 87.401 166.728 87.401 164.442C87.401 160.672 84.3733 158.726 80.8821 158.726C78.1015 158.726 75.5989 159.962 74.5485 162.433L77.051 163.391C77.8234 161.785 79.2446 160.95 81.0674 160.95C83.261 160.95 84.8058 162.341 84.8058 164.565C84.8058 167.871 81.9943 168.365 79.8316 168.365H79.0283V170.59Z" fill="white"/>
<path d="M91.438 180.971H105.526V178.561H94.373V178.499L101.108 172.165C103.302 170.095 105.372 168.149 105.372 164.658C105.372 160.765 102.313 158.726 98.6984 158.726C95.1763 158.726 92.4266 160.611 91.8396 164.194L94.6511 164.442C95.0527 162.341 96.5975 160.95 98.7911 160.95C100.985 160.95 102.777 162.372 102.777 164.658C102.777 166.79 101.757 167.964 99.6871 169.972L91.438 178.005V180.971Z" fill="white"/>
<path d="M111.355 177.449C110.336 177.449 109.501 178.283 109.501 179.302C109.501 180.322 110.397 181.156 111.355 181.156C112.313 181.156 113.209 180.322 113.209 179.302C113.209 178.283 112.375 177.449 111.355 177.449Z" fill="white"/>
<path d="M127.832 159.097H124.805L118.996 168.334C117.822 170.219 116.926 171.949 116.926 174.483C116.926 178.746 120.109 181.341 124.249 181.341C128.389 181.341 131.571 178.746 131.571 174.483C131.571 170.404 128.759 167.624 124.959 167.624C124.063 167.624 122.827 167.809 122.024 168.273L121.962 168.211L127.832 159.097ZM124.249 169.848C126.875 169.848 128.976 171.64 128.976 174.483C128.976 177.325 126.875 179.117 124.249 179.117C121.622 179.117 119.522 177.325 119.522 174.483C119.522 171.64 121.622 169.848 124.249 169.848Z" fill="white"/>
<path d="M134.001 164.133C134.001 167.16 136.38 169.539 139.408 169.539C142.436 169.539 144.815 167.16 144.815 164.133C144.815 161.105 142.436 158.726 139.408 158.726C136.38 158.726 134.001 161.105 134.001 164.133ZM136.226 164.133C136.226 162.402 137.709 160.95 139.408 160.95C141.107 160.95 142.59 162.402 142.59 164.133C142.59 165.863 141.107 167.315 139.408 167.315C137.709 167.315 136.226 165.863 136.226 164.133ZM146.576 175.935C146.576 178.962 148.955 181.341 151.982 181.341C155.01 181.341 157.389 178.962 157.389 175.935C157.389 172.907 155.01 170.528 151.982 170.528C148.955 170.528 146.576 172.907 146.576 175.935ZM148.8 175.935C148.8 174.205 150.283 172.753 151.982 172.753C153.682 172.753 155.165 174.205 155.165 175.935C155.165 177.665 153.682 179.117 151.982 179.117C150.283 179.117 148.8 177.665 148.8 175.935ZM138.079 180.971L139.779 181.959L153.496 159.097L151.797 158.108L138.079 180.971Z" fill="white"/>
<path d="M83.9098 190.399H82.0561V197.608H82.0149C81.3558 196.599 80.017 195.961 78.6164 195.961C75.6092 195.961 73.6525 198.164 73.6525 201.089C73.6525 203.973 75.5886 206.218 78.6164 206.218C79.9346 206.218 81.294 205.621 82.0149 204.57H82.0561V205.971H83.9098V190.399ZM78.843 204.488C76.8657 204.488 75.6298 203.067 75.6298 201.089C75.6298 199.112 76.8657 197.691 78.843 197.691C80.8203 197.691 82.0561 199.112 82.0561 201.089C82.0561 203.067 80.8203 204.488 78.843 204.488Z" fill="white"/>
<path d="M95.9452 201.769V201.11C95.9452 198.597 94.627 195.961 91.1873 195.961C88.2626 195.961 86.1411 198.164 86.1411 201.089C86.1411 203.993 88.0772 206.218 91.1667 206.218C93.0411 206.218 94.4623 205.559 95.4921 204.22L94.0915 203.149C93.3706 204.035 92.5467 204.611 91.4139 204.611C89.7044 204.611 88.1184 203.478 88.1184 201.769H95.9452ZM88.1184 200.286C88.1184 198.988 89.313 197.444 91.1461 197.444C93.0205 197.444 93.9267 198.659 93.9679 200.286H88.1184Z" fill="white"/>
<path d="M104.795 197.567C104.095 196.414 102.756 195.961 101.458 195.961C99.6252 195.961 97.7509 196.929 97.7509 198.968C97.7509 200.842 99.1515 201.357 100.737 201.748C101.541 201.934 103.085 202.14 103.085 203.252C103.085 204.096 102.056 204.488 101.108 204.488C100.037 204.488 99.3368 203.932 98.7395 203.334L97.3389 204.488C98.307 205.806 99.5016 206.218 101.108 206.218C103.044 206.218 105.063 205.353 105.063 203.149C105.063 201.316 103.827 200.698 102.22 200.307C101.397 200.121 99.7282 199.956 99.7282 198.782C99.7282 198.082 100.49 197.691 101.355 197.691C102.282 197.691 102.921 198.123 103.353 198.659L104.795 197.567Z" fill="white"/>
<path d="M107.315 205.971H109.169V200.904L113.7 205.971H116.336L111.393 200.657L115.945 196.228H113.37L109.169 200.451V190.399H107.315V205.971Z" fill="white"/>
<path d="M123.227 196.208H120.57V193.468H118.716V196.208H116.574V197.814H118.716V202.902C118.716 204.467 118.758 206.218 121.621 206.218C121.991 206.218 122.856 206.135 123.289 205.888V204.199C122.918 204.426 122.403 204.488 121.971 204.488C120.57 204.488 120.57 203.334 120.57 202.243V197.814H123.227V196.208Z" fill="white"/>
<path d="M127.122 201.089C127.122 199.112 128.358 197.691 130.336 197.691C132.313 197.691 133.549 199.112 133.549 201.089C133.549 203.067 132.313 204.488 130.336 204.488C128.358 204.488 127.122 203.067 127.122 201.089ZM125.145 201.089C125.145 203.932 127.431 206.218 130.336 206.218C133.24 206.218 135.526 203.932 135.526 201.089C135.526 198.247 133.24 195.961 130.336 195.961C127.431 195.961 125.145 198.247 125.145 201.089Z" fill="white"/>
<path d="M137.848 211.779H139.702V204.57H139.743C140.402 205.579 141.741 206.218 143.142 206.218C146.149 206.218 148.106 204.014 148.106 201.089C148.106 198.206 146.169 195.961 143.142 195.961C141.823 195.961 140.464 196.558 139.743 197.608H139.702V196.208H137.848V211.779ZM142.915 197.691C144.892 197.691 146.128 199.112 146.128 201.089C146.128 203.067 144.892 204.488 142.915 204.488C140.938 204.488 139.702 203.067 139.702 201.089C139.702 199.112 140.938 197.691 142.915 197.691Z" fill="white"/>
</svg>
