<svg width="123" height="100" viewBox="0 0 123 100" fill="none" xmlns="http://www.w3.org/2000/svg">
<path fill-rule="evenodd" clip-rule="evenodd" d="M41.3917 5.05422C35.9979 5.05422 31.3913 6.83497 27.4492 10.4296C23.7601 13.7774 21.9588 17.8292 21.9588 22.7363C21.9588 25.6379 22.4024 28.0718 23.22 30.0916C24.3481 32.156 25.5653 34.126 26.8713 36.0025C28.5549 38.1234 29.9405 40.3637 31.0181 42.7231C32.44 45.3774 33.0853 48.5048 33.0853 51.9944C33.0853 58.5302 30.4943 64.9887 25.6488 71.3281C21.1984 77.1505 14.9509 82.793 6.98922 88.2787L10.2944 93.2515C19.0843 87.9764 26.9342 81.6876 33.8515 74.3842L33.8526 74.383C41.5166 66.3015 47.4744 57.8639 51.7584 49.0747L51.7634 49.0645L51.7684 49.0544C56.2479 40.0683 58.4189 31.708 58.4189 23.9428C58.4189 17.8147 56.6764 13.288 53.4432 10.045L53.4191 10.0209L53.3957 9.99607C50.2988 6.71717 46.3672 5.05422 41.3917 5.05422ZM24.0618 6.68777C28.9403 2.2403 34.7579 0 41.3917 0C47.6311 0 52.9134 2.14949 57.0303 6.49524C61.3988 10.891 63.4578 16.8122 63.4578 23.9428C63.4578 32.6638 61.0195 41.7949 56.2801 51.3053C51.7436 60.6094 45.4744 70.4721 37.5047 78.8761M24.0618 6.68777C19.3322 10.9809 16.9198 16.3835 16.9198 22.7363C16.9198 26.2126 17.4611 29.3707 18.6172 32.1539L18.6679 32.2759L18.7311 32.392C19.9776 34.6842 21.3298 36.8756 22.7882 38.9653L22.8345 39.0316L22.8848 39.0948C24.3661 40.952 25.5569 42.8857 26.4679 44.8961L26.5058 44.9798L26.5497 45.0605C27.5024 46.8123 28.0464 49.0855 28.0464 51.9944C28.0464 57.1215 26.0264 62.5272 21.6499 68.2529C17.2627 73.9927 10.7865 79.7439 2.11475 85.4766L0 86.8747L8.72377 100L10.7656 98.8297C20.7969 93.0802 29.7138 87.1017 37.5047 78.8761M100.934 5.05422C95.54 5.05422 90.9335 6.83497 86.9913 10.4296L86.9869 10.4336C83.2979 13.7814 81.5009 17.8292 81.5009 22.7363C81.5009 25.6379 81.9445 28.0718 82.7622 30.0916C83.8902 32.156 85.1075 34.1261 86.4135 36.0025C88.0971 38.1234 89.4827 40.3637 90.5603 42.7231C91.9821 45.3774 92.6275 48.5048 92.6275 51.9944C92.6275 58.5302 90.0365 64.9887 85.191 71.3281C80.7406 77.1505 74.493 82.793 66.5314 88.2787L69.8365 93.2515C78.6265 87.9764 86.4763 81.6876 93.3936 74.3842L93.3947 74.383C101.059 66.3015 107.017 57.8639 111.301 49.0747L111.306 49.0645L111.311 49.0544C115.79 40.0683 117.961 31.708 117.961 23.9428C117.961 17.8147 116.219 13.288 112.985 10.045L112.961 10.0209L112.938 9.99607C109.841 6.71717 105.909 5.05422 100.934 5.05422ZM83.604 6.68777C88.4824 2.2403 94.3 0 100.934 0C107.173 0 112.456 2.14955 116.573 6.4954C120.941 10.8912 123 16.8123 123 23.9428C123 32.6638 120.562 41.7949 115.822 51.3053C111.286 60.6094 105.017 69.4613 97.0468 77.8653C89.2556 86.0914 80.3395 93.0799 70.3078 98.8297L68.2659 100L59.5422 86.8747L61.6569 85.4766C70.3286 79.7439 76.8048 73.9927 81.192 68.2529C85.5685 62.5272 87.5886 57.1215 87.5886 51.9944C87.5886 49.0855 87.0446 46.8123 86.0919 45.0605L86.048 44.9798L86.0101 44.8961C85.099 42.8857 83.9083 40.952 82.427 39.0948L82.3766 39.0316L82.3303 38.9653C80.872 36.8756 79.5197 34.6842 78.2732 32.392L78.2101 32.2759L78.1594 32.1539C77.0032 29.3707 76.462 26.2126 76.462 22.7363C76.462 16.3835 78.8743 10.9809 83.604 6.68777Z" fill="white"/>
</svg>
