{
    "asset" : {
        "generator" : "Khronos glTF Blender I/O v3.2.40",
        "version" : "2.0"
    },
    "extensionsUsed" : [
        "KHR_lights_punctual"
    ],
    "extensionsRequired" : [
        "KHR_lights_punctual"
    ],
    "extensions" : {
        "KHR_lights_punctual" : {
            "lights" : [
                {
                    "color" : [
                        0,
                        0.0036761295050382614,
                        0.9911015629768372
                    ],
                    "intensity" : 5000,
                    "type" : "point",
                    "name" : "Area"
                },
                {
                    "color" : [
                        1,
                        0,
                        0
                    ],
                    "intensity" : 5000,
                    "type" : "point",
                    "name" : "Area.001"
                }
            ]
        }
    },
    "scene" : 0,
    "scenes" : [
        {
            "name" : "1",
            "nodes" : [
                0,
                1,
                4
            ]
        }
    ],
    "nodes" : [
        {
            "camera" : 0,
            "name" : "Camera",
            "rotation" : [
                -0.0004384609928820282,
                0.9990682601928711,
                0.010460497811436653,
                0.04186995327472687
            ],
            "translation" : [
                0.6045882701873779,
                0.1513286978006363,
                -7.140644073486328
            ]
        },
        {
            "mesh" : 0,
            "name" : "Sphere"
        },
        {
            "extensions" : {
                "KHR_lights_punctual" : {
                    "light" : 0
                }
            },
            "name" : "Area",
            "rotation" : [
                -5.596234041149728e-05,
                0.0791100263595581,
                4.442900262802141e-06,
                0.9968659281730652
            ],
            "scale" : [
                0.7918897867202759,
                24.106908798217773,
                8.096254348754883
            ],
            "translation" : [
                6.400542259216309,
                0.004558563232421875,
                -0.7234420776367188
            ]
        },
        {
            "extensions" : {
                "KHR_lights_punctual" : {
                    "light" : 1
                }
            },
            "name" : "Area.001",
            "rotation" : [
                -5.6051361752906814e-05,
                -0.07928219437599182,
                -4.45971045337501e-06,
                0.9968522191047668
            ],
            "scale" : [
                0.7918897867202759,
                24.106908798217773,
                8.096257209777832
            ],
            "translation" : [
                -6.404112815856934,
                0.004558563232421875,
                -0.7898139953613281
            ]
        },
        {
            "children" : [
                2,
                3
            ],
            "name" : "Empty",
            "scale" : [
                0.5134468674659729,
                0.5134468674659729,
                0.5134468674659729
            ],
            "translation" : [
                0,
                0,
                20.94663429260254
            ]
        }
    ],
    "cameras" : [
        {
            "name" : "Camera.002",
            "perspective" : {
                "aspectRatio" : 2.2153846153846155,
                "yfov" : 0.3221838022397371,
                "zfar" : 1000,
                "znear" : 0.10000000149011612
            },
            "type" : "perspective"
        }
    ],
    "animations" : [
        {
            "channels" : [
                {
                    "sampler" : 0,
                    "target" : {
                        "node" : 1,
                        "path" : "translation"
                    }
                },
                {
                    "sampler" : 1,
                    "target" : {
                        "node" : 4,
                        "path" : "translation"
                    }
                }
            ],
            "name" : "Animation",
            "samplers" : [
                {
                    "input" : 4,
                    "interpolation" : "LINEAR",
                    "output" : 5
                },
                {
                    "input" : 6,
                    "interpolation" : "LINEAR",
                    "output" : 7
                }
            ]
        }
    ],
    "materials" : [
        {
            "doubleSided" : true,
            "name" : "Material",
            "pbrMetallicRoughness" : {
                "baseColorFactor" : [
                    0.800000011920929,
                    0.800000011920929,
                    0.800000011920929,
                    1
                ],
                "metallicFactor" : 0.8497409224510193
            }
        }
    ],
    "meshes" : [
        {
            "name" : "Sphere",
            "primitives" : [
                {
                    "attributes" : {
                        "POSITION" : 0,
                        "NORMAL" : 1,
                        "TEXCOORD_0" : 2
                    },
                    "indices" : 3,
                    "material" : 0
                }
            ]
        }
    ],
    "accessors" : [
        {
            "bufferView" : 0,
            "componentType" : 5126,
            "count" : 8808,
            "max" : [
                0.9872310161590576,
                0.9975767135620117,
                0.9872307181358337
            ],
            "min" : [
                -0.9872304201126099,
                -0.9975767135620117,
                -0.9872304201126099
            ],
            "type" : "VEC3"
        },
        {
            "bufferView" : 1,
            "componentType" : 5126,
            "count" : 8808,
            "type" : "VEC3"
        },
        {
            "bufferView" : 2,
            "componentType" : 5126,
            "count" : 8808,
            "type" : "VEC2"
        },
        {
            "bufferView" : 3,
            "componentType" : 5123,
            "count" : 47616,
            "type" : "SCALAR"
        },
        {
            "bufferView" : 4,
            "componentType" : 5126,
            "count" : 244,
            "max" : [
                7.483333333333333
            ],
            "min" : [
                3.433333333333333
            ],
            "type" : "SCALAR"
        },
        {
            "bufferView" : 5,
            "componentType" : 5126,
            "count" : 244,
            "type" : "VEC3"
        },
        {
            "bufferView" : 6,
            "componentType" : 5126,
            "count" : 167,
            "max" : [
                2.783333333333333
            ],
            "min" : [
                0.016666666666666666
            ],
            "type" : "SCALAR"
        },
        {
            "bufferView" : 7,
            "componentType" : 5126,
            "count" : 167,
            "type" : "VEC3"
        }
    ],
    "bufferViews" : [
        {
            "buffer" : 0,
            "byteLength" : 105696,
            "byteOffset" : 0
        },
        {
            "buffer" : 0,
            "byteLength" : 105696,
            "byteOffset" : 105696
        },
        {
            "buffer" : 0,
            "byteLength" : 70464,
            "byteOffset" : 211392
        },
        {
            "buffer" : 0,
            "byteLength" : 95232,
            "byteOffset" : 281856
        },
        {
            "buffer" : 0,
            "byteLength" : 976,
            "byteOffset" : 377088
        },
        {
            "buffer" : 0,
            "byteLength" : 2928,
            "byteOffset" : 378064
        },
        {
            "buffer" : 0,
            "byteLength" : 668,
            "byteOffset" : 380992
        },
        {
            "buffer" : 0,
            "byteLength" : 2004,
            "byteOffset" : 381660
        }
    ],
    "buffers" : [
        {
            "byteLength" : 383664,
            "uri" : "data:application/octet-stream;base64,"
        }
    ]
}
